<?xml version="1.0" encoding="utf-8"?>
<!-- Generator: Adobe Illustrator 23.0.2, SVG Export Plug-In . SVG Version: 6.00 Build 0)  -->
<svg version="1.1" id="Layer_1" xmlns="http://www.w3.org/2000/svg" xmlns:xlink="http://www.w3.org/1999/xlink" x="0px" y="0px"
	 viewBox="0 0 1000 1000" style="enable-background:new 0 0 1000 1000;" xml:space="preserve">
<style type="text/css">
	.st0{fill:#FFFFFF;}
	.st1{opacity:0.21;}
	.st2{fill:#9C6AAC;}
	.st3{fill:#1C86FC;}
	.st4{fill:#FCA10B;}
	.st5{fill:#14A644;}
	.st6{fill:#5C3E94;}
	.st7{fill:#FC0E0C;}
</style>
<g>
	<path class="st0" d="M361.8,609.68c6.39-2.56,13.49-1.64,20.14-0.75c-0.1,14.87,0.19,29.75-0.15,44.62
		c-6.85,3.22-15.04,4.83-22.26,1.85c-4.91-2.03-7.99-6.92-9.14-11.94c-1.47-6.55-1.48-13.5,0.3-19.99
		C352.38,617.69,355.98,611.97,361.8,609.68z"/>
	<path class="st0" d="M455.44,612.69c6.76-3.38,14.91-4.91,22.22-2.46c5.99,2.01,9.62,7.92,10.93,13.83
		c1.61,7.39,1.71,15.19-0.07,22.56c-1.67,6.56-5.66,13.13-12.22,15.7c-6.66,2.59-14.04,1.63-20.94,0.71
		C455.43,646.25,455.29,629.47,455.44,612.69z"/>
	<path class="st0" d="M760.97,610.86c7.62-3.32,16.78-1.89,23.9,2.09c-0.13,16.7-0.02,33.41-0.06,50.12
		c-8.47,1.04-18.29,2.37-25.46-3.38c-8.14-6.95-9.62-18.62-8.86-28.7C750.99,623.34,753.46,614.43,760.97,610.86z"/>
	<path class="st0" d="M254.89,647.87c2.06-2.43,5.2-3.63,8.26-4.19c6.39-1.06,12.93-0.68,19.29,0.43c-0.01,7.05,0,14.1-0.01,21.15
		c-6.12,0.65-12.33,0.99-18.46,0.38c-3.99-0.56-8.65-1.99-10.32-6.05C252.22,655.83,252.2,651.09,254.89,647.87z"/>
	<path class="st0" d="M561.48,643.81c6.58-1.25,13.37-0.82,19.94,0.28c0.03,7.06,0.01,14.11,0.01,21.17
		c-7.85,0.57-16.15,1.77-23.72-0.99c-5.84-1.96-7.32-9.53-4.98-14.63C554.37,646.3,557.99,644.53,561.48,643.81z"/>
	<path class="st0" d="M540.27,709.85c4.88-0.44,10.15-1.02,14.69,1.26c5.3,2.94,5.7,12.14-0.06,14.8c-4.56,1.99-9.71,1.1-14.54,1.45
		C540.15,721.52,540.32,715.68,540.27,709.85z"/>
	<path class="st0" d="M695.27,709.85c5.27-0.52,11.23-1.11,15.87,1.97c3.99,2.85,2.81,9.72-1.65,11.46
		c-4.56,1.57-9.45,0.78-14.16,1.03C695.19,719.49,695.29,714.66,695.27,709.85z"/>
	<path class="st0" d="M820.26,709.85c7.5-1.12,16.94-0.48,21.42,6.59c3.89,6.84,3.68,16.54-1.72,22.54
		c-5.06,5.24-12.97,5.15-19.69,4.47C820.26,732.24,820.27,721.04,820.26,709.85z"/>
	<path class="st0" d="M786.55,710.92c3.08,7.13,5.95,14.36,8.73,21.62c-5.75-0.02-11.51,0-17.26-0.01
		C780.63,725.23,783.8,718.16,786.55,710.92z"/>
	<path class="st0" d="M695.28,727.73c5.3,0.22,10.81-0.68,15.95,1.05c5.3,1.72,5.82,9.96,1.19,12.74
		c-5.18,2.96-11.43,2.23-17.14,1.93C695.25,738.2,695.26,732.96,695.28,727.73z"/>
</g>
<g>
	<g class="st1">
		<path d="M502.09,254.68c10.12-1.28,20.9-0.23,29.93,4.8c5.36,3.02,10.19,8.11,10.74,14.5c0.69,6.41-3.06,12.34-7.72,16.41
			c-8.39,7.25-19.6,10.53-30.52,11.07c-9.04,0.35-18.46-1.23-26.2-6.12c-4.64-2.97-8.63-7.62-9.25-13.27
			c-0.77-6.05,2.4-11.87,6.71-15.89C482.92,259.48,492.51,255.98,502.09,254.68z"/>
		<path d="M412,329.6c3.95-1.85,9.01-1.32,12.15,1.82c4.61,4.51,5.61,11.39,5.53,17.56c-0.45,9.97-3.98,20-10.6,27.56
			c-3.74,4.17-9.14,7.97-15.02,6.91c-5.09-0.95-8.28-5.79-9.56-10.48c-2.49-9.23-0.64-19.16,3.26-27.73
			C400.82,338.83,405.35,332.58,412,329.6z"/>
	</g>
	<g>
		<g>
			<path class="st2" d="M498.49,254.68c10.12-1.28,20.9-0.23,29.93,4.8c5.36,3.02,10.19,8.11,10.74,14.5
				c0.69,6.41-3.06,12.34-7.72,16.41c-8.39,7.25-19.6,10.53-30.52,11.07c-9.04,0.35-18.46-1.23-26.2-6.12
				c-4.64-2.97-8.63-7.62-9.25-13.27c-0.77-6.05,2.4-11.87,6.71-15.89C479.32,259.48,488.91,255.98,498.49,254.68z"/>
			<path class="st2" d="M408.4,329.6c3.95-1.85,9.01-1.32,12.15,1.82c4.61,4.51,5.61,11.39,5.53,17.56
				c-0.45,9.97-3.98,20-10.6,27.56c-3.74,4.17-9.14,7.97-15.02,6.91c-5.09-0.95-8.28-5.79-9.56-10.48
				c-2.49-9.23-0.64-19.16,3.26-27.73C397.22,338.83,401.75,332.58,408.4,329.6z"/>
		</g>
	</g>
</g>
<g>
	<g class="st1">
		<path d="M452.99,270.54c5.87-1.94,12.78,1.62,14.53,7.56c2.4,6.41-2.17,14.09-8.88,15.18c-5.8,1.27-12.04-2.66-13.5-8.39
			C443.35,279.01,447.11,272.24,452.99,270.54z"/>
		<path d="M617.12,348.7c4.61-1.31,9.68,0.42,12.97,3.8c8.3,8.47,7.91,24.11-1.27,31.78c-4.45,3.84-11.44,4.11-16.13,0.55
			c-6.98-5.14-9.26-14.88-7.15-23.01C607.01,355.98,611.09,350.33,617.12,348.7z"/>
		<path d="M449.95,411.54c14.06-3.27,29.54,4.78,35.09,18.07c5.53,12.25,1.99,27.82-8.41,36.38c-9.37,8.21-23.84,9.8-34.77,3.82
			c-11.03-5.66-17.88-18.35-16.49-30.69C426.42,425.86,436.91,414.12,449.95,411.54z"/>
	</g>
	<g>
		<g>
			<path class="st3" d="M449.39,270.54c5.87-1.94,12.78,1.62,14.53,7.56c2.4,6.41-2.17,14.09-8.88,15.18
				c-5.8,1.27-12.04-2.66-13.5-8.39C439.75,279.01,443.51,272.24,449.39,270.54z"/>
			<path class="st3" d="M613.52,348.7c4.61-1.31,9.68,0.42,12.97,3.8c8.3,8.47,7.91,24.11-1.27,31.78
				c-4.45,3.84-11.44,4.11-16.13,0.55c-6.98-5.14-9.26-14.88-7.15-23.01C603.41,355.98,607.49,350.33,613.52,348.7z"/>
			<path class="st3" d="M446.35,411.54c14.06-3.27,29.54,4.78,35.09,18.07c5.53,12.25,1.99,27.82-8.41,36.38
				c-9.37,8.21-23.84,9.8-34.77,3.82c-11.03-5.66-17.88-18.35-16.49-30.69C422.82,425.86,433.31,414.12,446.35,411.54z"/>
		</g>
	</g>
</g>
<g>
	<g class="st1">
		<path d="M558.71,275.16c11.85-1.63,23.82,2,34.29,7.37c7.02,3.92,14.32,8.95,17.36,16.73c1.75,4.15-0.49,9.06-4.56,10.79
			c-7.54,3.46-16.2,2.3-24.03,0.54c-10.5-2.72-20.79-7.51-28.46-15.33c-3.17-3.38-6.29-7.92-5.16-12.8
			C549.38,277.84,554.42,275.84,558.71,275.16z"/>
		<path d="M430.81,287.32c2.8-0.97,6.36-1.48,8.77,0.68c2.27,2.2,2.16,5.72,1.44,8.57c-1.88,6.84-6.45,12.66-11.81,17.16
			c-3.63,2.9-7.88,5.53-12.65,5.74c-2.78,0.21-5.64-1.65-6.14-4.47c-0.88-4.51,1.13-8.98,3.35-12.8
			C417.81,295.74,423.6,290.05,430.81,287.32z"/>
		<path d="M608.97,317.54c6.94-2.54,15.09,3.06,15.31,10.41c0.71,7.24-6.52,13.84-13.67,12.3c-6.94-0.92-11.57-8.9-9.08-15.41
			C602.69,321.42,605.54,318.65,608.97,317.54z"/>
		<path d="M468.96,372.54c2.77-1.27,5.87,0.2,7.91,2.14c4.19,3.98,6.28,9.68,7.17,15.29c0.57,4.52,0.4,9.47-2.04,13.48
			c-1.28,2.16-3.87,3.67-6.41,3.05c-3.27-0.74-5.68-3.38-7.42-6.09c-3.73-6-5.31-13.4-4.05-20.37
			C464.72,377.09,466.11,373.91,468.96,372.54z"/>
		<path d="M494.02,413.53c5.98-3.55,13.21,1.54,14.83,7.58c2.55,6.15-0.75,15.44-8.23,15.61
			C489.57,436.64,484.7,419.45,494.02,413.53z"/>
		<path d="M532.12,434.65c14.09-1.82,29.08-0.78,41.88,5.82c7.17,3.71,13.85,10.13,14.73,18.55c1.03,9.03-4.63,17.24-11.32,22.72
			c-12.56,10.23-28.9,14.83-44.87,15.57c-12.19,0.46-24.9-1.37-35.55-7.63c-6.43-3.82-12.19-10.03-12.84-17.79
			c-0.78-8.07,3.82-15.58,9.59-20.82C504.25,441.51,518.24,436.62,532.12,434.65z"/>
	</g>
	<g>
		<g>
			<path class="st4" d="M555.11,275.16c11.85-1.63,23.82,2,34.29,7.37c7.02,3.92,14.32,8.95,17.36,16.73
				c1.75,4.15-0.49,9.06-4.56,10.79c-7.54,3.46-16.2,2.3-24.03,0.54c-10.5-2.72-20.79-7.51-28.46-15.33
				c-3.17-3.38-6.29-7.92-5.16-12.8C545.78,277.84,550.82,275.84,555.11,275.16z"/>
			<path class="st4" d="M427.21,287.32c2.8-0.97,6.36-1.48,8.77,0.68c2.27,2.2,2.16,5.72,1.44,8.57
				c-1.88,6.84-6.45,12.66-11.81,17.16c-3.63,2.9-7.88,5.53-12.65,5.74c-2.78,0.21-5.64-1.65-6.14-4.47
				c-0.88-4.51,1.13-8.98,3.35-12.8C414.21,295.74,420,290.05,427.21,287.32z"/>
			<path class="st4" d="M605.37,317.54c6.94-2.54,15.09,3.06,15.31,10.41c0.71,7.24-6.52,13.84-13.67,12.3
				c-6.94-0.92-11.57-8.9-9.08-15.41C599.09,321.42,601.94,318.65,605.37,317.54z"/>
			<path class="st4" d="M465.36,372.54c2.77-1.27,5.87,0.2,7.91,2.14c4.19,3.98,6.28,9.68,7.17,15.29c0.57,4.52,0.4,9.47-2.04,13.48
				c-1.28,2.16-3.87,3.67-6.41,3.05c-3.27-0.74-5.68-3.38-7.42-6.09c-3.73-6-5.31-13.4-4.05-20.37
				C461.12,377.09,462.51,373.91,465.36,372.54z"/>
			<path class="st4" d="M490.42,413.53c5.98-3.55,13.21,1.54,14.83,7.58c2.55,6.15-0.75,15.44-8.23,15.61
				C485.97,436.64,481.1,419.45,490.42,413.53z"/>
			<path class="st4" d="M528.52,434.65c14.09-1.82,29.08-0.78,41.88,5.82c7.17,3.71,13.85,10.13,14.73,18.55
				c1.03,9.03-4.63,17.24-11.32,22.72c-12.56,10.23-28.9,14.83-44.87,15.57c-12.19,0.46-24.9-1.37-35.55-7.63
				c-6.43-3.82-12.19-10.03-12.84-17.79c-0.78-8.07,3.82-15.58,9.59-20.82C500.65,441.51,514.64,436.62,528.52,434.65z"/>
		</g>
	</g>
</g>
<g>
	<g class="st1">
		<path d="M453.98,298.61c13.8-4.43,29.95,3.32,35.27,16.75c5.77,12.94,0.37,29.44-11.88,36.52c-12.02,7.6-29.29,4.49-37.92-6.8
			c-9.12-10.94-8.37-28.45,1.65-38.58C444.61,302.81,449.11,300.09,453.98,298.61z"/>
	</g>
	<g>
		<g>
			<path class="st5" d="M450.38,298.61c13.8-4.43,29.95,3.32,35.27,16.75c5.77,12.94,0.37,29.44-11.88,36.52
				c-12.02,7.6-29.29,4.49-37.92-6.8c-9.12-10.94-8.37-28.45,1.65-38.58C441.01,302.81,445.51,300.09,450.38,298.61z"/>
		</g>
	</g>
</g>
<g>
	<g>
		<g class="st1">
			<path d="M534.08,309.72c13.09-1.87,26.78,0.82,38.12,7.64c12.52,7.41,22.08,19.64,26.21,33.59c4.04,13.44,3.08,28.34-2.76,41.11
				c-5.85,12.98-16.58,23.67-29.61,29.41c-14.92,6.71-32.69,6.69-47.59-0.06c-13.08-5.81-23.84-16.61-29.62-29.7
				c-6.38-14.22-6.77-31.02-0.93-45.48C495.27,326.96,513.62,312.45,534.08,309.72z"/>
		</g>
		<g>
			<path class="st6" d="M530.48,309.72c13.09-1.87,26.78,0.82,38.12,7.64c12.52,7.41,22.08,19.64,26.21,33.59
				c4.04,13.44,3.08,28.34-2.76,41.11c-5.85,12.98-16.58,23.67-29.61,29.41c-14.92,6.71-32.69,6.69-47.59-0.06
				c-13.08-5.81-23.84-16.61-29.62-29.7c-6.38-14.22-6.77-31.02-0.93-45.48C491.67,326.96,510.02,312.45,530.48,309.72z"/>
		</g>
	</g>
	<g>
		<g class="st1">
			<path d="M441.87,357.39c6-2.57,13.39,0.22,16.43,5.92c6.5,11.52-0.43,28.99-13.84,31.4c-7.39,1.3-14.09-4.81-15.29-11.84
				C426.96,372.9,432.19,361.27,441.87,357.39z"/>
		</g>
		<g>
			<path class="st6" d="M438.27,357.39c6-2.57,13.39,0.22,16.43,5.92c6.5,11.52-0.43,28.99-13.84,31.4
				c-7.39,1.3-14.09-4.81-15.29-11.84C423.36,372.9,428.59,361.27,438.27,357.39z"/>
		</g>
	</g>
	<g>
		<path class="st6" d="M427.95,546.28c9.16-1.3,18.27-2.91,27.42-4.32c0.01,16.04,0.01,32.09,0,48.14
			c11.79-4.98,25.6-5.73,37.56-0.92c9.74,3.93,17.09,12.45,20.74,22.18c4.47,11.97,5.22,25.22,3.05,37.76
			c-2.4,13.52-10.74,26.27-23.31,32.31c-10.27,5.26-22.13,6.15-33.46,5.34c-10.71-0.8-21.46-2.13-31.77-5.21
			c-0.09-0.36-0.28-1.09-0.37-1.45C427.91,635.5,427.63,590.88,427.95,546.28z M455.44,612.69c-0.15,16.78-0.01,33.56-0.08,50.34
			c6.9,0.92,14.28,1.88,20.94-0.71c6.56-2.57,10.55-9.14,12.22-15.7c1.78-7.37,1.68-15.17,0.07-22.56
			c-1.31-5.91-4.94-11.82-10.93-13.83C470.35,607.78,462.2,609.31,455.44,612.69z"/>
	</g>
	<g>
		<path class="st6" d="M784.83,546.36c9.16-1.45,18.32-2.95,27.48-4.4c-0.02,46.54,0.07,93.08-0.05,139.61
			c-13.09,3.55-26.66,5.34-40.22,5.44c-13.89,0.08-28.59-4.33-38-15.03c-9.9-11.05-12.72-26.65-11.6-41.05
			c0.86-13.63,5.62-28.03,16.72-36.72c12.83-9.84,31.17-10.55,45.66-4.07C784.82,575.55,784.79,560.95,784.83,546.36z
			 M760.97,610.86c-7.51,3.57-9.98,12.48-10.48,20.13c-0.76,10.08,0.72,21.75,8.86,28.7c7.17,5.75,16.99,4.42,25.46,3.38
			c0.04-16.71-0.07-33.42,0.06-50.12C777.75,608.97,768.59,607.54,760.97,610.86z"/>
	</g>
	<g>
		<path class="st6" d="M533.39,590.56c13.18-3.66,27.01-5.3,40.67-4.21c9.57,0.84,19.69,3.98,26.04,11.62
			c6.25,7.47,7.53,17.65,7.7,27.06c0.03,19.06,0.01,38.13,0.01,57.2c-13.76,2.97-27.76,5.07-41.86,4.78
			c-11.35-0.14-23.83-1.36-32.76-9.1c-7.83-6.79-9.72-18-8.42-27.83c0.99-8.27,6.45-15.7,13.84-19.45
			c13.14-6.6,28.69-6.72,42.87-4.08c0.08-4.18-0.31-8.71-3.09-12.06c-3.12-4.08-8.57-5.13-13.4-5.38
			c-9.48-0.29-19.07,0.77-28.1,3.75C535.74,605.42,534.55,597.99,533.39,590.56z M561.48,643.81c-3.49,0.72-7.11,2.49-8.75,5.83
			c-2.34,5.1-0.86,12.67,4.98,14.63c7.57,2.76,15.87,1.56,23.72,0.99c0-7.06,0.02-14.11-0.01-21.17
			C574.85,642.99,568.06,642.56,561.48,643.81z"/>
	</g>
	<path class="st6" d="M628.71,590.7c14.18-3.39,28.8-5.24,43.4-4.58c8.25,0.44,16.71,2.4,23.46,7.39
		c6.6,4.84,10.62,12.52,12.23,20.43c2.1,9.2,1.58,18.68,1.64,28.04c0,14.36,0.01,28.72-0.01,43.08c-9.16,0.01-18.32,0-27.49,0
		c-0.08-18.68,0.14-37.37-0.11-56.04c-0.5-6.3-0.97-14.18-6.95-17.86c-6.64-3.5-14.47-1.86-21.57-1.16
		c0.01,25.02,0.01,50.04,0,75.06c-9.17,0.01-18.33,0.01-27.49,0c-0.02-30.71,0-61.42-0.01-92.13
		C625.25,591.03,627.58,591.13,628.71,590.7z"/>
	<path class="st6" d="M839.24,592.19c7.04-4.43,15.49-6.02,23.71-6.18c10.69-0.24,21.42,1.45,31.55,4.9
		c-1.59,7.12-3.19,14.25-4.81,21.37c-10.01-3.24-21.03-5.98-31.42-3c-4.62,1.18-5.99,7.79-2.39,10.78
		c5.9,4.46,13.24,6.22,19.89,9.25c8.67,3.76,18.22,8.87,21.37,18.46c2.48,8.7,2.46,18.9-2.76,26.62
		c-5.51,7.87-15.2,11.33-24.33,12.74c-15.41,2.08-31.41,0.71-45.94-4.97c1.53-7.36,3.08-14.72,4.62-22.08
		c11.2,4.27,23.32,6.88,35.34,5.5c2.86-0.33,6.42-1.37,7.08-4.62c1.02-3.05-0.74-6.2-3.38-7.71c-10.57-6.55-23.87-8.21-33.13-16.94
		c-7.49-6.99-9.18-18.23-7.15-27.89C828.9,601.66,833.43,595.82,839.24,592.19z"/>
</g>
<g>
	<g class="st1">
		<path d="M407.87,388.24c4.37-1.57,9.35-0.34,12.94,2.46c9.08,6.99,11.49,21.68,4.23,30.78c-3.61,4.58-10.37,6.19-15.63,3.63
			c-8.2-3.79-12.41-13.42-11.65-22.13C398.29,396.83,401.74,390.34,407.87,388.24z"/>
		<path d="M613.07,397.67c4.04-1.74,9.2-1.93,12.73,1.04c4.13,3.44,5.13,9.21,4.89,14.31c-0.61,9.81-5.07,19.17-11.55,26.46
			c-4.59,4.86-10.58,9.45-17.59,9.28c-4.88-0.09-8.86-4.04-10.08-8.58c-2.12-7.52-0.28-15.56,2.86-22.51
			C598.22,409.29,604.45,401.46,613.07,397.67z"/>
	</g>
	<g>
		<g>
			<path class="st7" d="M404.27,388.24c4.37-1.57,9.35-0.34,12.94,2.46c9.08,6.99,11.49,21.68,4.23,30.78
				c-3.61,4.58-10.37,6.19-15.63,3.63c-8.2-3.79-12.41-13.42-11.65-22.13C394.69,396.83,398.14,390.34,404.27,388.24z"/>
			<path class="st7" d="M609.47,397.67c4.04-1.74,9.2-1.93,12.73,1.04c4.13,3.44,5.13,9.21,4.89,14.31
				c-0.61,9.81-5.07,19.17-11.55,26.46c-4.59,4.86-10.58,9.45-17.59,9.28c-4.88-0.09-8.86-4.04-10.08-8.58
				c-2.12-7.52-0.28-15.56,2.86-22.51C594.62,409.29,600.85,401.46,609.47,397.67z"/>
		</g>
	</g>
</g>
<g>
	<path d="M119.76,546.82c8.66-4.49,18.7-5.22,28.29-4.68c5.59,0.28,11,1.89,16.2,3.88c-1.59,7.11-3.19,14.23-4.78,21.35
		c-7.86-2.61-17.33-3.92-24.8,0.42c-6.61,4.34-6.47,13.19-6.3,20.2c11.3,0.02,22.59,0,33.88,0.01c0,7.69,0,15.37,0,23.06
		c-11.29,0.01-22.58-0.01-33.88,0.01c0.01,24.66,0.01,49.32,0,73.99c-9.16,0-18.33,0-27.49,0c-0.01-30.36,0-60.73-0.01-91.09
		c0.12-8.66-0.64-17.55,1.98-25.94C105.41,559.12,111.43,551.07,119.76,546.82z"/>
	<path d="M178.19,546.37c9.17-1.47,18.33-2.96,27.5-4.41c-0.01,35.03,0.01,70.05-0.01,105.08c0.11,4.19,0.08,8.91,2.96,12.3
		c3,3.46,7.83,4.21,12.14,4.67c-1.28,7.67-2.57,15.34-3.86,23.02c-10.74-0.3-22.67-1.35-30.95-8.99c-7.08-6.6-7.79-16.97-7.79-26.05
		C178.2,616.78,178.17,581.57,178.19,546.37z"/>
	<g>
		<path d="M234.4,590.55c12.85-3.55,26.31-5.19,39.63-4.29c9.66,0.71,19.88,3.61,26.53,11.08c6.47,7.21,7.96,17.32,8.22,26.66
			c0.08,19.41,0.02,38.82,0.03,58.23c-11.13,2.28-22.35,4.39-33.75,4.65c-11.53,0.33-23.65,0.37-34.32-4.63
			c-7.18-3.31-12.71-9.98-14.36-17.75c-1.81-8.73-1.51-18.73,4.09-26.1c4.99-6.89,13.29-10.41,21.4-12.04
			c10.08-1.91,20.56-1.89,30.61,0.2c0.09-4.21-0.32-8.75-3.12-12.12c-3.36-4.31-9.24-5.2-14.36-5.37
			c-9.14-0.12-18.4,0.85-27.09,3.82C236.72,605.44,235.56,598,234.4,590.55z M254.89,647.87c-2.69,3.22-2.67,7.96-1.24,11.72
			c1.67,4.06,6.33,5.49,10.32,6.05c6.13,0.61,12.34,0.27,18.46-0.38c0.01-7.05,0-14.1,0.01-21.15c-6.36-1.11-12.9-1.49-19.29-0.43
			C260.09,644.24,256.95,645.44,254.89,647.87z"/>
	</g>
	<g>
		<path d="M342.22,592.96c12.47-7.47,27.62-7.8,41.67-6.23c8.65,0.89,17.25,2.34,25.61,4.75c-0.01,27.28,0.04,54.56-0.02,81.83
			c-0.06,11.17-2.02,23.05-9.18,32.01c-6.34,8.07-16.4,12.15-26.3,13.68c-16.06,2.44-32.57,0.37-47.96-4.62
			c1.49-7.67,3.19-15.29,4.77-22.93c10.85,4.29,22.65,6.21,34.29,5.27c4.94-0.48,10.21-2.2,13.2-6.42c3.39-4.3,3.81-9.99,3.67-15.25
			c-10,4.48-21.47,4.98-32.07,2.56c-8.53-1.96-16.31-7.14-21.09-14.5c-7-10.56-8.26-23.83-7.23-36.15
			C322.81,613.29,330.08,599.84,342.22,592.96z M361.8,609.68c-5.82,2.29-9.42,8.01-11.11,13.79c-1.78,6.49-1.77,13.44-0.3,19.99
			c1.15,5.02,4.23,9.91,9.14,11.94c7.22,2.98,15.41,1.37,22.26-1.85c0.34-14.87,0.05-29.75,0.15-44.62
			C375.29,608.04,368.19,607.12,361.8,609.68z"/>
	</g>
	<path d="M473.01,706.19c1.34,0,2.68,0.05,4.03,0.14c2.73,11.92,4.17,24.22,8.17,35.85c3.66-10.31,8.02-20.37,10.98-30.91
		c1.15,0,2.31,0,3.48,0.02c3.16,10.65,7.19,21.01,11.22,31.36c2.86-12.02,5.67-24.07,7.79-36.24c1.35-0.1,2.7-0.17,4.06-0.23
		c-2.46,13.76-5.1,27.54-9.43,40.85c-1.59-0.04-3.18-0.07-4.75-0.12c-3.82-9.58-7.14-19.35-10.75-29.01
		c-3.4,9.78-6.94,19.5-10.87,29.08c-1.43,0.01-2.85,0.04-4.26,0.09C477.58,733.97,475.67,719.92,473.01,706.19z"/>
	<g>
		<path d="M536.25,707.04c7.02-1.24,14.77-2.05,21.37,1.26c5.78,2.95,7.18,11.02,4.15,16.41c-1.5,2.65-4.47,3.83-7.01,5.2
			c4.07,5.42,8.1,10.94,10.98,17.12c-1.47-0.05-2.94-0.11-4.4-0.18c-2.93-5.8-6.81-11.05-10.73-16.21
			c-3.45,0.14-6.9,0.09-10.34,0.09c-0.01,5.42,0,10.84,0,16.27c-1.35-0.01-2.68-0.01-4.01-0.01
			C536.26,733.67,536.29,720.36,536.25,707.04z M540.27,709.85c0.05,5.83-0.12,11.67,0.09,17.51c4.83-0.35,9.98,0.54,14.54-1.45
			c5.76-2.66,5.36-11.86,0.06-14.8C550.42,708.83,545.15,709.41,540.27,709.85z"/>
	</g>
	<path d="M578.27,706.27c1.32-0.01,2.65-0.02,3.99-0.01c0.01,13.58,0,27.16,0.01,40.74c-1.35-0.01-2.68-0.01-4.01,0
		C578.27,733.42,578.26,719.85,578.27,706.27z"/>
	<path d="M601.19,707.13c5.96-2.77,13.09-1.83,18.88,0.96c-0.5,1.14-1,2.28-1.48,3.44c-4.37-2.55-9.89-3.38-14.7-1.68
		c-4.37,1.58-5.3,8.16-1.68,10.98c4.78,3.6,11.19,4.26,15.82,8.13c5.35,4.34,4.52,14.32-1.93,17.22c-6.63,3.02-14.4,2.03-20.97-0.66
		c0.32-1.26,0.68-2.5,1.07-3.72c5.46,2.72,12.2,3.96,17.92,1.27c4.47-2.36,4.03-9.51,0.04-12.16c-4.77-3.17-11-3.76-15.24-7.8
		C594.11,718.87,595.29,709.8,601.19,707.13z"/>
	<path d="M630,706.26c10,0.01,20,0.01,30,0c-0.01,1.15-0.01,2.31,0,3.48c-4.34-0.01-8.67-0.01-13-0.01c0,12.42,0,24.85,0,37.27
		c-1.34-0.01-2.67-0.01-4,0c0-12.42,0-24.85,0-37.27c-4.34,0-8.67,0-13,0.01C630,708.57,629.99,707.41,630,706.26z"/>
	<g>
		<path d="M691.25,707.04c7.28-1.28,15.44-2.12,22.17,1.57c6.52,3.55,5.47,14.55-1.66,16.76c8.65,1.16,10.81,13.71,3.98,18.44
			c-7.14,4.71-16.28,3.57-24.32,2.57C691.05,733.27,691.39,720.15,691.25,707.04z M695.27,709.85c0.02,4.81-0.08,9.64,0.06,14.46
			c4.71-0.25,9.6,0.54,14.16-1.03c4.46-1.74,5.64-8.61,1.65-11.46C706.5,708.74,700.54,709.33,695.27,709.85z M695.28,727.73
			c-0.02,5.23-0.03,10.47,0,15.72c5.71,0.3,11.96,1.03,17.14-1.93c4.63-2.78,4.11-11.02-1.19-12.74
			C706.09,727.05,700.58,727.95,695.28,727.73z"/>
	</g>
	<path d="M734.27,706.27c7.82-0.01,15.64-0.01,23.46,0c-0.01,1.14-0.01,2.3,0,3.46c-6.49,0-12.98,0-19.46,0
		c-0.01,4.67-0.01,9.33,0,14c5.82,0,11.64,0,17.46,0c0,0.88,0,2.65,0,3.54c-5.82-0.01-11.64-0.01-17.46,0
		c-0.01,5.42,0,10.84,0,16.27c7-0.01,14-0.01,21-0.01c0,0.87,0,2.6-0.01,3.47c-8.33,0-16.66,0-25,0
		C734.27,733.42,734.26,719.84,734.27,706.27z"/>
	<g>
		<path d="M784.6,706.33c1.39-0.04,2.79-0.07,4.21-0.08c5.84,13.41,10.85,27.16,16.19,40.78c-1.53-0.05-3.05-0.09-4.55-0.15
			c-1.2-3.66-2.82-7.15-3.81-10.87c-6.59-0.03-13.18-0.01-19.76,0c-1.32,3.67-2.86,7.27-4.15,10.95c-1.43,0.01-2.84,0.03-4.24,0.06
			C773.64,733.37,778.48,719.6,784.6,706.33z M786.55,710.92c-2.75,7.24-5.92,14.31-8.53,21.61c5.75,0.01,11.51-0.01,17.26,0.01
			C792.5,725.28,789.63,718.05,786.55,710.92z"/>
	</g>
	<g>
		<path d="M816.24,707.07c7.3-1.55,15.33-1.8,22.21,1.51c13.52,6.57,13.57,29.36,0.12,36c-6.85,3.49-14.85,3.01-22.2,1.77
			C816.11,733.26,816.37,720.16,816.24,707.07z M820.26,709.85c0.01,11.19,0,22.39,0.01,33.6c6.72,0.68,14.63,0.77,19.69-4.47
			c5.4-6,5.61-15.7,1.72-22.54C837.2,709.37,827.76,708.73,820.26,709.85z"/>
	</g>
	<path d="M866.23,707.11c5.95-2.75,13.06-1.81,18.84,0.98c-0.51,1.14-1,2.28-1.48,3.44c-4.4-2.56-9.96-3.4-14.78-1.65
		c-4.31,1.63-5.2,8.16-1.6,10.95c4.8,3.61,11.23,4.27,15.86,8.16c5.3,4.36,4.47,14.28-1.96,17.18c-6.62,3.05-14.45,2.06-21.01-0.69
		c0.35-1.24,0.71-2.47,1.1-3.67c5.46,2.7,12.18,3.95,17.89,1.28c4.56-2.37,4.05-9.69-0.08-12.29c-4.77-3.07-10.9-3.7-15.1-7.7
		C859.1,718.85,860.3,709.77,866.23,707.11z"/>
</g>
</svg>
